<mxfile host="Electron" modified="2024-12-28T14:17:11.009Z" agent="Mozilla/5.0 (Windows NT 10.0; Win64; x64) AppleWebKit/537.36 (KHTML, like Gecko) draw.io/24.4.13 Chrome/124.0.6367.207 Electron/30.0.6 Safari/537.36" etag="OzxnpoOMtXLU0d2Lt-F_" version="24.4.13" type="device">
  <diagram id="C5RBs43oDa-KdzZeNtuy" name="Page-1">
    <mxGraphModel dx="1925" dy="648" grid="1" gridSize="10" guides="1" tooltips="1" connect="1" arrows="1" fold="1" page="1" pageScale="1" pageWidth="827" pageHeight="1169" math="0" shadow="0">
      <root>
        <mxCell id="WIyWlLk6GJQsqaUBKTNV-0" />
        <mxCell id="WIyWlLk6GJQsqaUBKTNV-1" parent="WIyWlLk6GJQsqaUBKTNV-0" />
        <mxCell id="hIFc5xB6QWnZmUxRv_iG-0" value="" style="ellipse;whiteSpace=wrap;html=1;strokeWidth=2;fillWeight=2;hachureGap=8;fillColor=#990000;fillStyle=dots;sketch=1;" vertex="1" parent="WIyWlLk6GJQsqaUBKTNV-1">
          <mxGeometry x="389" y="40" width="50" height="50" as="geometry" />
        </mxCell>
        <mxCell id="hIFc5xB6QWnZmUxRv_iG-1" value="" style="endArrow=none;html=1;rounded=0;entryX=0.5;entryY=1;entryDx=0;entryDy=0;" edge="1" parent="WIyWlLk6GJQsqaUBKTNV-1" source="hIFc5xB6QWnZmUxRv_iG-3" target="hIFc5xB6QWnZmUxRv_iG-0">
          <mxGeometry width="50" height="50" relative="1" as="geometry">
            <mxPoint x="414" y="160" as="sourcePoint" />
            <mxPoint x="450" y="110" as="targetPoint" />
          </mxGeometry>
        </mxCell>
        <mxCell id="hIFc5xB6QWnZmUxRv_iG-2" value="&lt;font style=&quot;font-size: 14px;&quot;&gt;ورود به برنامه&lt;/font&gt;" style="text;strokeColor=none;fillColor=none;html=1;fontSize=24;fontStyle=1;verticalAlign=middle;align=center;" vertex="1" parent="WIyWlLk6GJQsqaUBKTNV-1">
          <mxGeometry x="372" y="10" width="84" height="20" as="geometry" />
        </mxCell>
        <mxCell id="hIFc5xB6QWnZmUxRv_iG-3" value="&lt;font style=&quot;font-size: 15px;&quot;&gt;لاگین کردن کاربر&lt;/font&gt;" style="rounded=1;whiteSpace=wrap;html=1;fillColor=#f5f5f5;strokeColor=#666666;fontColor=#333333;" vertex="1" parent="WIyWlLk6GJQsqaUBKTNV-1">
          <mxGeometry x="369" y="140" width="91" height="40" as="geometry" />
        </mxCell>
        <mxCell id="hIFc5xB6QWnZmUxRv_iG-6" style="edgeStyle=orthogonalEdgeStyle;rounded=0;orthogonalLoop=1;jettySize=auto;html=1;" edge="1" parent="WIyWlLk6GJQsqaUBKTNV-1" source="hIFc5xB6QWnZmUxRv_iG-4">
          <mxGeometry relative="1" as="geometry">
            <mxPoint x="520" y="255" as="targetPoint" />
          </mxGeometry>
        </mxCell>
        <mxCell id="hIFc5xB6QWnZmUxRv_iG-10" style="edgeStyle=orthogonalEdgeStyle;rounded=0;orthogonalLoop=1;jettySize=auto;html=1;" edge="1" parent="WIyWlLk6GJQsqaUBKTNV-1" source="hIFc5xB6QWnZmUxRv_iG-4">
          <mxGeometry relative="1" as="geometry">
            <mxPoint x="415" y="350" as="targetPoint" />
          </mxGeometry>
        </mxCell>
        <mxCell id="hIFc5xB6QWnZmUxRv_iG-4" value="&lt;b&gt;کاربر وجود دارد&lt;/b&gt;" style="rhombus;whiteSpace=wrap;html=1;fillColor=#ffe6cc;strokeColor=#d79b00;" vertex="1" parent="WIyWlLk6GJQsqaUBKTNV-1">
          <mxGeometry x="380" y="220" width="70" height="70" as="geometry" />
        </mxCell>
        <mxCell id="hIFc5xB6QWnZmUxRv_iG-5" value="" style="endArrow=none;html=1;rounded=0;entryX=0.5;entryY=1;entryDx=0;entryDy=0;" edge="1" parent="WIyWlLk6GJQsqaUBKTNV-1" source="hIFc5xB6QWnZmUxRv_iG-4" target="hIFc5xB6QWnZmUxRv_iG-3">
          <mxGeometry width="50" height="50" relative="1" as="geometry">
            <mxPoint x="220" y="370" as="sourcePoint" />
            <mxPoint x="270" y="320" as="targetPoint" />
          </mxGeometry>
        </mxCell>
        <mxCell id="hIFc5xB6QWnZmUxRv_iG-8" value="&lt;font style=&quot;font-size: 18px;&quot;&gt;خیر&lt;/font&gt;" style="text;strokeColor=none;fillColor=none;html=1;fontSize=24;fontStyle=1;verticalAlign=middle;align=center;" vertex="1" parent="WIyWlLk6GJQsqaUBKTNV-1">
          <mxGeometry x="439" y="230" width="90" height="30" as="geometry" />
        </mxCell>
        <mxCell id="hIFc5xB6QWnZmUxRv_iG-9" value="&lt;font style=&quot;font-size: 16px;&quot;&gt;نشان دادن ارور&lt;/font&gt;" style="rounded=1;whiteSpace=wrap;html=1;fillColor=#f5f5f5;fontColor=#333333;strokeColor=#666666;" vertex="1" parent="WIyWlLk6GJQsqaUBKTNV-1">
          <mxGeometry x="529" y="237.5" width="100" height="35" as="geometry" />
        </mxCell>
        <mxCell id="hIFc5xB6QWnZmUxRv_iG-11" value="&lt;font style=&quot;font-size: 18px;&quot;&gt;بله&lt;/font&gt;" style="text;strokeColor=none;fillColor=none;html=1;fontSize=24;fontStyle=1;verticalAlign=middle;align=center;" vertex="1" parent="WIyWlLk6GJQsqaUBKTNV-1">
          <mxGeometry x="380" y="300" width="90" height="30" as="geometry" />
        </mxCell>
        <mxCell id="hIFc5xB6QWnZmUxRv_iG-15" style="edgeStyle=orthogonalEdgeStyle;rounded=0;orthogonalLoop=1;jettySize=auto;html=1;entryX=0.5;entryY=0;entryDx=0;entryDy=0;" edge="1" parent="WIyWlLk6GJQsqaUBKTNV-1" source="hIFc5xB6QWnZmUxRv_iG-14" target="hIFc5xB6QWnZmUxRv_iG-19">
          <mxGeometry relative="1" as="geometry">
            <mxPoint x="540" y="380" as="targetPoint" />
          </mxGeometry>
        </mxCell>
        <mxCell id="hIFc5xB6QWnZmUxRv_iG-16" style="edgeStyle=orthogonalEdgeStyle;rounded=0;orthogonalLoop=1;jettySize=auto;html=1;" edge="1" parent="WIyWlLk6GJQsqaUBKTNV-1" source="hIFc5xB6QWnZmUxRv_iG-14">
          <mxGeometry relative="1" as="geometry">
            <mxPoint x="290" y="380" as="targetPoint" />
          </mxGeometry>
        </mxCell>
        <mxCell id="hIFc5xB6QWnZmUxRv_iG-14" value="&lt;font style=&quot;font-size: 14px;&quot;&gt;سطح دسترسی کاربر&lt;/font&gt;" style="rhombus;whiteSpace=wrap;html=1;fillColor=#ffe6cc;strokeColor=#d79b00;" vertex="1" parent="WIyWlLk6GJQsqaUBKTNV-1">
          <mxGeometry x="375" y="340" width="80" height="80" as="geometry" />
        </mxCell>
        <mxCell id="hIFc5xB6QWnZmUxRv_iG-17" value="&lt;font style=&quot;font-size: 15px;&quot;&gt;admin&lt;/font&gt;" style="text;strokeColor=none;fillColor=none;html=1;fontSize=24;fontStyle=1;verticalAlign=middle;align=center;" vertex="1" parent="WIyWlLk6GJQsqaUBKTNV-1">
          <mxGeometry x="400" y="420" width="90" height="30" as="geometry" />
        </mxCell>
        <mxCell id="hIFc5xB6QWnZmUxRv_iG-18" value="&lt;font style=&quot;font-size: 15px;&quot;&gt;not admin&lt;/font&gt;" style="text;strokeColor=none;fillColor=none;html=1;fontSize=24;fontStyle=1;verticalAlign=middle;align=center;" vertex="1" parent="WIyWlLk6GJQsqaUBKTNV-1">
          <mxGeometry x="290" y="340" width="90" height="30" as="geometry" />
        </mxCell>
        <mxCell id="hIFc5xB6QWnZmUxRv_iG-19" value="&lt;font style=&quot;font-size: 15px;&quot;&gt;&amp;nbsp;دسترسی به صفحات مشاهده‌ی جلسات، حذف و اضافه جلسات&lt;/font&gt;" style="rounded=1;whiteSpace=wrap;html=1;fillColor=#f5f5f5;fontColor=#333333;strokeColor=#666666;" vertex="1" parent="WIyWlLk6GJQsqaUBKTNV-1">
          <mxGeometry x="355" y="470" width="120" height="60" as="geometry" />
        </mxCell>
        <mxCell id="hIFc5xB6QWnZmUxRv_iG-20" value="&lt;font style=&quot;font-size: 16px;&quot;&gt;هدایت شدن به صفحه‌ی مشاهده‌ی جلسات&lt;/font&gt;" style="rounded=1;whiteSpace=wrap;html=1;fillColor=#f5f5f5;fontColor=#333333;strokeColor=#666666;" vertex="1" parent="WIyWlLk6GJQsqaUBKTNV-1">
          <mxGeometry x="170" y="350" width="120" height="60" as="geometry" />
        </mxCell>
        <mxCell id="hIFc5xB6QWnZmUxRv_iG-21" value="" style="endArrow=none;html=1;rounded=0;exitX=1;exitY=0.5;exitDx=0;exitDy=0;entryX=0;entryY=0.5;entryDx=0;entryDy=0;" edge="1" parent="WIyWlLk6GJQsqaUBKTNV-1" source="hIFc5xB6QWnZmUxRv_iG-19" target="hIFc5xB6QWnZmUxRv_iG-24">
          <mxGeometry width="50" height="50" relative="1" as="geometry">
            <mxPoint x="490" y="520" as="sourcePoint" />
            <mxPoint x="640" y="500" as="targetPoint" />
          </mxGeometry>
        </mxCell>
        <mxCell id="hIFc5xB6QWnZmUxRv_iG-22" value="" style="endArrow=none;html=1;rounded=0;entryX=0;entryY=0.5;entryDx=0;entryDy=0;exitX=1;exitY=0.5;exitDx=0;exitDy=0;" edge="1" parent="WIyWlLk6GJQsqaUBKTNV-1" source="hIFc5xB6QWnZmUxRv_iG-30" target="hIFc5xB6QWnZmUxRv_iG-19">
          <mxGeometry width="50" height="50" relative="1" as="geometry">
            <mxPoint x="200" y="500" as="sourcePoint" />
            <mxPoint x="335" y="499.5" as="targetPoint" />
          </mxGeometry>
        </mxCell>
        <mxCell id="hIFc5xB6QWnZmUxRv_iG-23" value="" style="endArrow=none;html=1;rounded=0;entryX=0.5;entryY=1;entryDx=0;entryDy=0;exitX=0.5;exitY=0;exitDx=0;exitDy=0;" edge="1" parent="WIyWlLk6GJQsqaUBKTNV-1" source="hIFc5xB6QWnZmUxRv_iG-45" target="hIFc5xB6QWnZmUxRv_iG-19">
          <mxGeometry width="50" height="50" relative="1" as="geometry">
            <mxPoint x="415" y="610" as="sourcePoint" />
            <mxPoint x="430" y="580" as="targetPoint" />
          </mxGeometry>
        </mxCell>
        <mxCell id="hIFc5xB6QWnZmUxRv_iG-25" style="edgeStyle=orthogonalEdgeStyle;rounded=0;orthogonalLoop=1;jettySize=auto;html=1;entryX=0.5;entryY=0;entryDx=0;entryDy=0;" edge="1" parent="WIyWlLk6GJQsqaUBKTNV-1" source="hIFc5xB6QWnZmUxRv_iG-24" target="hIFc5xB6QWnZmUxRv_iG-26">
          <mxGeometry relative="1" as="geometry">
            <mxPoint x="700" y="570" as="targetPoint" />
          </mxGeometry>
        </mxCell>
        <mxCell id="hIFc5xB6QWnZmUxRv_iG-24" value="&lt;font style=&quot;font-size: 15px;&quot;&gt;اضافه کردن رکورد به جدول&lt;/font&gt;" style="rounded=1;whiteSpace=wrap;html=1;fillColor=#f5f5f5;fontColor=#333333;strokeColor=#666666;" vertex="1" parent="WIyWlLk6GJQsqaUBKTNV-1">
          <mxGeometry x="700" y="475" width="120" height="50" as="geometry" />
        </mxCell>
        <mxCell id="hIFc5xB6QWnZmUxRv_iG-32" style="edgeStyle=orthogonalEdgeStyle;rounded=0;orthogonalLoop=1;jettySize=auto;html=1;entryX=0.5;entryY=0;entryDx=0;entryDy=0;" edge="1" parent="WIyWlLk6GJQsqaUBKTNV-1" source="hIFc5xB6QWnZmUxRv_iG-26" target="hIFc5xB6QWnZmUxRv_iG-33">
          <mxGeometry relative="1" as="geometry">
            <mxPoint x="820" y="650" as="targetPoint" />
          </mxGeometry>
        </mxCell>
        <mxCell id="hIFc5xB6QWnZmUxRv_iG-26" value="&lt;font style=&quot;font-size: 15px;&quot;&gt;نوشتن تمام فیلد ها&lt;/font&gt;" style="rounded=1;whiteSpace=wrap;html=1;fillColor=#f5f5f5;fontColor=#333333;strokeColor=#666666;" vertex="1" parent="WIyWlLk6GJQsqaUBKTNV-1">
          <mxGeometry x="760" y="565" width="120" height="45" as="geometry" />
        </mxCell>
        <mxCell id="hIFc5xB6QWnZmUxRv_iG-70" style="edgeStyle=orthogonalEdgeStyle;rounded=0;orthogonalLoop=1;jettySize=auto;html=1;entryX=1;entryY=0.5;entryDx=0;entryDy=0;" edge="1" parent="WIyWlLk6GJQsqaUBKTNV-1" source="hIFc5xB6QWnZmUxRv_iG-30" target="hIFc5xB6QWnZmUxRv_iG-69">
          <mxGeometry relative="1" as="geometry" />
        </mxCell>
        <mxCell id="hIFc5xB6QWnZmUxRv_iG-30" value="&lt;font style=&quot;font-size: 15px;&quot;&gt;حذف رکورد از جدول&lt;/font&gt;" style="rounded=1;whiteSpace=wrap;html=1;fillColor=#f5f5f5;fontColor=#333333;strokeColor=#666666;" vertex="1" parent="WIyWlLk6GJQsqaUBKTNV-1">
          <mxGeometry x="50" y="475" width="120" height="50" as="geometry" />
        </mxCell>
        <mxCell id="hIFc5xB6QWnZmUxRv_iG-37" style="edgeStyle=orthogonalEdgeStyle;rounded=0;orthogonalLoop=1;jettySize=auto;html=1;entryX=0.5;entryY=0;entryDx=0;entryDy=0;" edge="1" parent="WIyWlLk6GJQsqaUBKTNV-1" source="hIFc5xB6QWnZmUxRv_iG-33" target="hIFc5xB6QWnZmUxRv_iG-35">
          <mxGeometry relative="1" as="geometry" />
        </mxCell>
        <mxCell id="hIFc5xB6QWnZmUxRv_iG-33" value="&lt;font style=&quot;font-size: 15px;&quot;&gt;انتخاب دکمه‌ی اضافه کردن&lt;/font&gt;" style="rounded=1;whiteSpace=wrap;html=1;fillColor=#f5f5f5;fontColor=#333333;strokeColor=#666666;" vertex="1" parent="WIyWlLk6GJQsqaUBKTNV-1">
          <mxGeometry x="760" y="650" width="120" height="40" as="geometry" />
        </mxCell>
        <mxCell id="hIFc5xB6QWnZmUxRv_iG-38" style="edgeStyle=orthogonalEdgeStyle;rounded=0;orthogonalLoop=1;jettySize=auto;html=1;" edge="1" parent="WIyWlLk6GJQsqaUBKTNV-1" source="hIFc5xB6QWnZmUxRv_iG-35">
          <mxGeometry relative="1" as="geometry">
            <mxPoint x="940" y="755" as="targetPoint" />
          </mxGeometry>
        </mxCell>
        <mxCell id="hIFc5xB6QWnZmUxRv_iG-39" style="edgeStyle=orthogonalEdgeStyle;rounded=0;orthogonalLoop=1;jettySize=auto;html=1;" edge="1" parent="WIyWlLk6GJQsqaUBKTNV-1" source="hIFc5xB6QWnZmUxRv_iG-40">
          <mxGeometry relative="1" as="geometry">
            <mxPoint x="820" y="850" as="targetPoint" />
          </mxGeometry>
        </mxCell>
        <mxCell id="hIFc5xB6QWnZmUxRv_iG-35" value="&lt;font style=&quot;font-size: 15px;&quot;&gt;فیلد خالی وجود دارد؟&lt;/font&gt;" style="rhombus;whiteSpace=wrap;html=1;shadow=0;rounded=0;fillColor=#ffe6cc;strokeColor=#d79b00;" vertex="1" parent="WIyWlLk6GJQsqaUBKTNV-1">
          <mxGeometry x="770" y="710" width="100" height="90" as="geometry" />
        </mxCell>
        <mxCell id="hIFc5xB6QWnZmUxRv_iG-41" value="" style="edgeStyle=orthogonalEdgeStyle;rounded=0;orthogonalLoop=1;jettySize=auto;html=1;" edge="1" parent="WIyWlLk6GJQsqaUBKTNV-1" source="hIFc5xB6QWnZmUxRv_iG-35" target="hIFc5xB6QWnZmUxRv_iG-40">
          <mxGeometry relative="1" as="geometry">
            <mxPoint x="820" y="850" as="targetPoint" />
            <mxPoint x="820" y="800" as="sourcePoint" />
          </mxGeometry>
        </mxCell>
        <mxCell id="hIFc5xB6QWnZmUxRv_iG-54" style="edgeStyle=orthogonalEdgeStyle;rounded=0;orthogonalLoop=1;jettySize=auto;html=1;" edge="1" parent="WIyWlLk6GJQsqaUBKTNV-1" source="hIFc5xB6QWnZmUxRv_iG-40" target="hIFc5xB6QWnZmUxRv_iG-53">
          <mxGeometry relative="1" as="geometry" />
        </mxCell>
        <mxCell id="hIFc5xB6QWnZmUxRv_iG-40" value="&lt;span style=&quot;font-size: 15px;&quot;&gt;اضافه کردن رکورد به جدول&lt;/span&gt;" style="rounded=1;whiteSpace=wrap;html=1;fillColor=#f5f5f5;fontColor=#333333;strokeColor=#666666;" vertex="1" parent="WIyWlLk6GJQsqaUBKTNV-1">
          <mxGeometry x="760" y="850" width="120" height="40" as="geometry" />
        </mxCell>
        <mxCell id="hIFc5xB6QWnZmUxRv_iG-42" value="&lt;span style=&quot;font-size: 15px;&quot;&gt;نشان دادن ارور&lt;/span&gt;" style="rounded=1;whiteSpace=wrap;html=1;fillColor=#f5f5f5;fontColor=#333333;strokeColor=#666666;" vertex="1" parent="WIyWlLk6GJQsqaUBKTNV-1">
          <mxGeometry x="940" y="735" width="120" height="40" as="geometry" />
        </mxCell>
        <mxCell id="hIFc5xB6QWnZmUxRv_iG-43" value="&lt;font size=&quot;1&quot; style=&quot;&quot;&gt;&lt;b style=&quot;font-size: 15px;&quot;&gt;خیر&lt;/b&gt;&lt;/font&gt;" style="text;html=1;align=center;verticalAlign=middle;whiteSpace=wrap;rounded=0;" vertex="1" parent="WIyWlLk6GJQsqaUBKTNV-1">
          <mxGeometry x="810" y="800" width="60" height="30" as="geometry" />
        </mxCell>
        <mxCell id="hIFc5xB6QWnZmUxRv_iG-44" value="&lt;font size=&quot;1&quot; style=&quot;&quot;&gt;&lt;b style=&quot;font-size: 15px;&quot;&gt;بله&lt;/b&gt;&lt;/font&gt;" style="text;html=1;align=center;verticalAlign=middle;whiteSpace=wrap;rounded=0;" vertex="1" parent="WIyWlLk6GJQsqaUBKTNV-1">
          <mxGeometry x="870" y="730" width="60" height="30" as="geometry" />
        </mxCell>
        <mxCell id="hIFc5xB6QWnZmUxRv_iG-58" style="edgeStyle=orthogonalEdgeStyle;rounded=0;orthogonalLoop=1;jettySize=auto;html=1;entryX=0.5;entryY=0;entryDx=0;entryDy=0;" edge="1" parent="WIyWlLk6GJQsqaUBKTNV-1" source="hIFc5xB6QWnZmUxRv_iG-45" target="hIFc5xB6QWnZmUxRv_iG-57">
          <mxGeometry relative="1" as="geometry" />
        </mxCell>
        <mxCell id="hIFc5xB6QWnZmUxRv_iG-45" value="&lt;font style=&quot;font-size: 15px;&quot;&gt;مشاهده جلسات&lt;/font&gt;" style="rounded=1;whiteSpace=wrap;html=1;fillColor=#f5f5f5;fontColor=#333333;strokeColor=#666666;" vertex="1" parent="WIyWlLk6GJQsqaUBKTNV-1">
          <mxGeometry x="355" y="585" width="120" height="45" as="geometry" />
        </mxCell>
        <mxCell id="hIFc5xB6QWnZmUxRv_iG-50" value="" style="ellipse;whiteSpace=wrap;html=1;strokeWidth=2;fillWeight=2;hachureGap=8;fillColor=#990000;fillStyle=dots;sketch=1;" vertex="1" parent="WIyWlLk6GJQsqaUBKTNV-1">
          <mxGeometry x="795" y="1000" width="50" height="50" as="geometry" />
        </mxCell>
        <mxCell id="hIFc5xB6QWnZmUxRv_iG-52" value="&lt;font style=&quot;font-size: 15px;&quot;&gt;خروج از برنامه&lt;/font&gt;" style="text;strokeColor=none;fillColor=none;html=1;fontSize=24;fontStyle=1;verticalAlign=middle;align=center;" vertex="1" parent="WIyWlLk6GJQsqaUBKTNV-1">
          <mxGeometry x="770" y="1050" width="100" height="40" as="geometry" />
        </mxCell>
        <mxCell id="hIFc5xB6QWnZmUxRv_iG-55" style="edgeStyle=orthogonalEdgeStyle;rounded=0;orthogonalLoop=1;jettySize=auto;html=1;entryX=0.5;entryY=0;entryDx=0;entryDy=0;" edge="1" parent="WIyWlLk6GJQsqaUBKTNV-1" source="hIFc5xB6QWnZmUxRv_iG-53" target="hIFc5xB6QWnZmUxRv_iG-50">
          <mxGeometry relative="1" as="geometry" />
        </mxCell>
        <mxCell id="hIFc5xB6QWnZmUxRv_iG-53" value="&lt;span style=&quot;font-size: 15px;&quot;&gt;هدایت به صفحه‌‌ی مشاهده جلسات&lt;/span&gt;" style="rounded=1;whiteSpace=wrap;html=1;fillColor=#f5f5f5;fontColor=#333333;strokeColor=#666666;" vertex="1" parent="WIyWlLk6GJQsqaUBKTNV-1">
          <mxGeometry x="760" y="930" width="120" height="40" as="geometry" />
        </mxCell>
        <mxCell id="hIFc5xB6QWnZmUxRv_iG-61" style="edgeStyle=orthogonalEdgeStyle;rounded=0;orthogonalLoop=1;jettySize=auto;html=1;entryX=0.5;entryY=0;entryDx=0;entryDy=0;" edge="1" parent="WIyWlLk6GJQsqaUBKTNV-1" source="hIFc5xB6QWnZmUxRv_iG-57" target="hIFc5xB6QWnZmUxRv_iG-60">
          <mxGeometry relative="1" as="geometry" />
        </mxCell>
        <mxCell id="hIFc5xB6QWnZmUxRv_iG-57" value="&lt;font style=&quot;font-size: 15px;&quot;&gt;انتخاب دکمه ی مشاهده جلسات امروز&lt;/font&gt;" style="rounded=1;whiteSpace=wrap;html=1;fillColor=#f5f5f5;fontColor=#333333;strokeColor=#666666;" vertex="1" parent="WIyWlLk6GJQsqaUBKTNV-1">
          <mxGeometry x="355" y="665" width="120" height="45" as="geometry" />
        </mxCell>
        <mxCell id="hIFc5xB6QWnZmUxRv_iG-62" style="edgeStyle=orthogonalEdgeStyle;rounded=0;orthogonalLoop=1;jettySize=auto;html=1;entryX=1;entryY=0.5;entryDx=0;entryDy=0;" edge="1" parent="WIyWlLk6GJQsqaUBKTNV-1" source="hIFc5xB6QWnZmUxRv_iG-60" target="hIFc5xB6QWnZmUxRv_iG-66">
          <mxGeometry relative="1" as="geometry">
            <mxPoint x="330" y="805" as="targetPoint" />
          </mxGeometry>
        </mxCell>
        <mxCell id="hIFc5xB6QWnZmUxRv_iG-63" style="edgeStyle=orthogonalEdgeStyle;rounded=0;orthogonalLoop=1;jettySize=auto;html=1;" edge="1" parent="WIyWlLk6GJQsqaUBKTNV-1" source="hIFc5xB6QWnZmUxRv_iG-60">
          <mxGeometry relative="1" as="geometry">
            <mxPoint x="415" y="890" as="targetPoint" />
          </mxGeometry>
        </mxCell>
        <mxCell id="hIFc5xB6QWnZmUxRv_iG-60" value="&lt;p style=&quot;line-height: 110%;&quot;&gt;&lt;b&gt;جلسه ای به تاریخ امروز وجود دارد؟&lt;/b&gt;&lt;/p&gt;" style="rhombus;whiteSpace=wrap;html=1;align=center;fillColor=#ffe6cc;strokeColor=#d79b00;" vertex="1" parent="WIyWlLk6GJQsqaUBKTNV-1">
          <mxGeometry x="371" y="760" width="88" height="90" as="geometry" />
        </mxCell>
        <mxCell id="hIFc5xB6QWnZmUxRv_iG-64" value="&lt;font size=&quot;1&quot; style=&quot;&quot;&gt;&lt;b style=&quot;font-size: 15px;&quot;&gt;خیر&lt;/b&gt;&lt;/font&gt;" style="text;html=1;align=center;verticalAlign=middle;whiteSpace=wrap;rounded=0;" vertex="1" parent="WIyWlLk6GJQsqaUBKTNV-1">
          <mxGeometry x="320" y="780" width="60" height="30" as="geometry" />
        </mxCell>
        <mxCell id="hIFc5xB6QWnZmUxRv_iG-65" value="&lt;font size=&quot;1&quot; style=&quot;&quot;&gt;&lt;b style=&quot;font-size: 15px;&quot;&gt;بله&lt;/b&gt;&lt;/font&gt;" style="text;html=1;align=center;verticalAlign=middle;whiteSpace=wrap;rounded=0;" vertex="1" parent="WIyWlLk6GJQsqaUBKTNV-1">
          <mxGeometry x="414" y="850" width="60" height="30" as="geometry" />
        </mxCell>
        <mxCell id="hIFc5xB6QWnZmUxRv_iG-66" value="&lt;font style=&quot;font-size: 14px;&quot;&gt;نشان دادن پیام جلسه ای برای امروز وجود ندارد&lt;/font&gt;" style="rounded=1;whiteSpace=wrap;html=1;fillColor=#f5f5f5;fontColor=#333333;strokeColor=#666666;" vertex="1" parent="WIyWlLk6GJQsqaUBKTNV-1">
          <mxGeometry x="210" y="780" width="110" height="50" as="geometry" />
        </mxCell>
        <mxCell id="hIFc5xB6QWnZmUxRv_iG-81" style="edgeStyle=orthogonalEdgeStyle;rounded=0;orthogonalLoop=1;jettySize=auto;html=1;" edge="1" parent="WIyWlLk6GJQsqaUBKTNV-1" source="hIFc5xB6QWnZmUxRv_iG-67" target="hIFc5xB6QWnZmUxRv_iG-76">
          <mxGeometry relative="1" as="geometry" />
        </mxCell>
        <mxCell id="hIFc5xB6QWnZmUxRv_iG-67" value="&lt;font style=&quot;font-size: 14px;&quot;&gt;نشان دادن جلسات امروز&lt;/font&gt;" style="rounded=1;whiteSpace=wrap;html=1;fillColor=#f5f5f5;fontColor=#333333;strokeColor=#666666;" vertex="1" parent="WIyWlLk6GJQsqaUBKTNV-1">
          <mxGeometry x="360" y="890" width="110" height="50" as="geometry" />
        </mxCell>
        <mxCell id="hIFc5xB6QWnZmUxRv_iG-74" style="edgeStyle=orthogonalEdgeStyle;rounded=0;orthogonalLoop=1;jettySize=auto;html=1;entryX=0.5;entryY=0;entryDx=0;entryDy=0;" edge="1" parent="WIyWlLk6GJQsqaUBKTNV-1" source="hIFc5xB6QWnZmUxRv_iG-69" target="hIFc5xB6QWnZmUxRv_iG-72">
          <mxGeometry relative="1" as="geometry" />
        </mxCell>
        <mxCell id="hIFc5xB6QWnZmUxRv_iG-69" value="&lt;font style=&quot;font-size: 15px;&quot;&gt;کاربر رکورد مورد نظر را انتخاب میکند&lt;/font&gt;" style="rounded=1;whiteSpace=wrap;html=1;fillColor=#f5f5f5;fontColor=#333333;strokeColor=#666666;" vertex="1" parent="WIyWlLk6GJQsqaUBKTNV-1">
          <mxGeometry x="-130" y="475" width="120" height="50" as="geometry" />
        </mxCell>
        <mxCell id="hIFc5xB6QWnZmUxRv_iG-75" style="edgeStyle=orthogonalEdgeStyle;rounded=0;orthogonalLoop=1;jettySize=auto;html=1;entryX=0.5;entryY=0;entryDx=0;entryDy=0;" edge="1" parent="WIyWlLk6GJQsqaUBKTNV-1" source="hIFc5xB6QWnZmUxRv_iG-72" target="hIFc5xB6QWnZmUxRv_iG-73">
          <mxGeometry relative="1" as="geometry" />
        </mxCell>
        <mxCell id="hIFc5xB6QWnZmUxRv_iG-72" value="&lt;font style=&quot;font-size: 15px;&quot;&gt;بر روی دکمه ی حذف رکورد کلیک میکند&lt;/font&gt;" style="rounded=1;whiteSpace=wrap;html=1;fillColor=#f5f5f5;fontColor=#333333;strokeColor=#666666;" vertex="1" parent="WIyWlLk6GJQsqaUBKTNV-1">
          <mxGeometry x="-130" y="560" width="120" height="50" as="geometry" />
        </mxCell>
        <mxCell id="hIFc5xB6QWnZmUxRv_iG-80" style="edgeStyle=orthogonalEdgeStyle;rounded=0;orthogonalLoop=1;jettySize=auto;html=1;" edge="1" parent="WIyWlLk6GJQsqaUBKTNV-1" source="hIFc5xB6QWnZmUxRv_iG-73" target="hIFc5xB6QWnZmUxRv_iG-77">
          <mxGeometry relative="1" as="geometry" />
        </mxCell>
        <mxCell id="hIFc5xB6QWnZmUxRv_iG-73" value="&lt;font style=&quot;font-size: 15px;&quot;&gt;رکورد از جدول حذف میشود&lt;/font&gt;" style="rounded=1;whiteSpace=wrap;html=1;fillColor=#f5f5f5;fontColor=#333333;strokeColor=#666666;" vertex="1" parent="WIyWlLk6GJQsqaUBKTNV-1">
          <mxGeometry x="-130" y="650" width="120" height="50" as="geometry" />
        </mxCell>
        <mxCell id="hIFc5xB6QWnZmUxRv_iG-76" value="" style="ellipse;whiteSpace=wrap;html=1;strokeWidth=2;fillWeight=2;hachureGap=8;fillColor=#990000;fillStyle=dots;sketch=1;" vertex="1" parent="WIyWlLk6GJQsqaUBKTNV-1">
          <mxGeometry x="390" y="970" width="50" height="50" as="geometry" />
        </mxCell>
        <mxCell id="hIFc5xB6QWnZmUxRv_iG-77" value="" style="ellipse;whiteSpace=wrap;html=1;strokeWidth=2;fillWeight=2;hachureGap=8;fillColor=#990000;fillStyle=dots;sketch=1;" vertex="1" parent="WIyWlLk6GJQsqaUBKTNV-1">
          <mxGeometry x="-95" y="740" width="50" height="50" as="geometry" />
        </mxCell>
        <mxCell id="hIFc5xB6QWnZmUxRv_iG-78" value="&lt;font style=&quot;font-size: 15px;&quot;&gt;خروج از برنامه&lt;/font&gt;" style="text;strokeColor=none;fillColor=none;html=1;fontSize=24;fontStyle=1;verticalAlign=middle;align=center;" vertex="1" parent="WIyWlLk6GJQsqaUBKTNV-1">
          <mxGeometry x="364" y="1020" width="100" height="40" as="geometry" />
        </mxCell>
        <mxCell id="hIFc5xB6QWnZmUxRv_iG-79" value="&lt;font style=&quot;font-size: 15px;&quot;&gt;خروج از برنامه&lt;/font&gt;" style="text;strokeColor=none;fillColor=none;html=1;fontSize=24;fontStyle=1;verticalAlign=middle;align=center;" vertex="1" parent="WIyWlLk6GJQsqaUBKTNV-1">
          <mxGeometry x="-120" y="795" width="100" height="40" as="geometry" />
        </mxCell>
        <mxCell id="hIFc5xB6QWnZmUxRv_iG-83" value="&lt;span style=&quot;font-size: 15px;&quot;&gt;پروژه‌ی پارسا خانی و محمد امین استیری&lt;br&gt;درس پایگاه داده&amp;nbsp;&lt;br&gt;رشته: فناوری اطلاعات&lt;br&gt;استاد: آقای صادق مجتبی فر&lt;br&gt;دانشگاه شهید شمسی پور&lt;/span&gt;" style="text;strokeColor=none;fillColor=none;html=1;fontSize=24;fontStyle=1;verticalAlign=middle;align=center;" vertex="1" parent="WIyWlLk6GJQsqaUBKTNV-1">
          <mxGeometry x="70" y="70" width="100" height="40" as="geometry" />
        </mxCell>
      </root>
    </mxGraphModel>
  </diagram>
</mxfile>
